<?xml version="1.0" encoding="UTF-8"?>
<svg id="Layer_1" data-name="Layer 1" xmlns="http://www.w3.org/2000/svg" viewBox="0 0 632.6 833.01">
  <defs>
    <style>
      .cls-1 {
        fill: #4aa0b2;
        stroke-width: 0px;
      }
    </style>
  </defs>
  <path class="cls-1" d="M630.62,800.51l-205.73-311.24c68.86-48.8,113.8-129.11,113.8-219.93C538.69,120.59,418.1,0,269.35,0S0,120.59,0,269.34s120.59,269.35,269.35,269.35c40.31,0,78.56-8.86,112.89-24.73l207.34,313.67c3.64,5.51,11.13,7.04,16.63,3.4l21.02-13.9c5.5-3.63,7.03-11.12,3.39-16.62ZM39.05,269.34c0-127.19,103.11-230.29,230.3-230.29s230.29,103.1,230.29,230.29-103.11,230.3-230.29,230.3S39.05,396.53,39.05,269.34Z"/>
</svg>